<svg width="58" height="58" viewBox="0 0 58 58" fill="none" xmlns="http://www.w3.org/2000/svg">
<g filter="url(#filter0_d_11_1417)">
<path d="M51.6562 43.7498H50.875V15.6248C50.875 15.4176 50.7927 15.2189 50.6462 15.0724C50.4997 14.9259 50.3009 14.8436 50.0938 14.8436H37.8234C38.4422 13.0749 38.8495 11.2392 39.0367 9.37483H43.0625C43.217 9.3748 43.368 9.32896 43.4965 9.24312C43.6249 9.15727 43.725 9.03527 43.7841 8.89253C43.8432 8.7498 43.8587 8.59274 43.8286 8.44122C43.7985 8.28969 43.7241 8.1505 43.6148 8.04124L37.3648 1.79124C37.2183 1.64478 37.0197 1.5625 36.8125 1.5625C36.6053 1.5625 36.4067 1.64478 36.2602 1.79124L30.0102 8.04124C29.9009 8.1505 29.8265 8.28969 29.7964 8.44122C29.7663 8.59274 29.7818 8.7498 29.8409 8.89253C29.9 9.03527 30.0001 9.15727 30.1285 9.24312C30.257 9.32896 30.408 9.3748 30.5625 9.37483H33.0289C32.1166 11.4383 30.7997 13.2979 29.1562 14.8436H7.90625C7.69905 14.8436 7.50034 14.9259 7.35382 15.0724C7.20731 15.2189 7.125 15.4176 7.125 15.6248V43.7498H6.34375C6.13655 43.7498 5.93784 43.8321 5.79132 43.9787C5.64481 44.1252 5.5625 44.3239 5.5625 44.5311V46.0936C5.5625 46.7152 5.80943 47.3113 6.24897 47.7509C6.68851 48.1904 7.28465 48.4373 7.90625 48.4373H50.0938C50.7154 48.4373 51.3115 48.1904 51.751 47.7509C52.1906 47.3113 52.4375 46.7152 52.4375 46.0936V44.5311C52.4375 44.3239 52.3552 44.1252 52.2087 43.9787C52.0622 43.8321 51.8634 43.7498 51.6562 43.7498ZM34.9188 8.85999C34.9616 8.74199 34.9753 8.61542 34.9588 8.49099C34.9423 8.36656 34.8961 8.24793 34.8241 8.14515C34.752 8.04237 34.6563 7.95846 34.5449 7.90053C34.4336 7.84259 34.3099 7.81234 34.1844 7.81233H32.4484L36.8125 3.44827L41.1766 7.81233H38.3172C38.1186 7.8119 37.9273 7.88709 37.7822 8.02263C37.6371 8.15817 37.549 8.34388 37.5359 8.54202C37.1772 13.698 35.0525 18.5728 31.5197 22.3453C27.987 26.1179 23.262 28.5577 18.1406 29.2537L15.7188 29.5756V21.0084C19.8095 21.3764 23.9076 20.3856 27.3784 18.1894C30.8493 15.9933 33.4995 12.7143 34.9188 8.85999ZM8.6875 16.4061H27.2258C23.7399 18.8696 19.4546 19.9311 15.2219 19.3795L15.0437 19.3545C14.9331 19.3393 14.8205 19.348 14.7136 19.38C14.6066 19.412 14.5077 19.4666 14.4236 19.54C14.3395 19.6135 14.2721 19.7041 14.226 19.8058C14.1799 19.9075 14.1561 20.0179 14.1562 20.1295V30.4686C14.1562 30.6758 14.2386 30.8745 14.3851 31.021C14.5316 31.1675 14.7303 31.2498 14.9375 31.2498C14.972 31.2498 15.0064 31.2475 15.0406 31.2428L18.3438 30.803C22.466 30.2408 26.3718 28.6187 29.6795 26.0952C32.9872 23.5718 35.5835 20.2333 37.2148 16.4061H49.3125V43.7498H47.75V18.7498C47.75 18.5426 47.6677 18.3439 47.5212 18.1974C47.3747 18.0509 47.1759 17.9686 46.9688 17.9686H38.375V19.5311H46.1875V43.7498H11.8125V19.5311H13.375V17.9686H11.0312C10.824 17.9686 10.6253 18.0509 10.4788 18.1974C10.3323 18.3439 10.25 18.5426 10.25 18.7498V43.7498H8.6875V16.4061ZM50.875 46.0936C50.875 46.3008 50.7927 46.4995 50.6462 46.646C50.4997 46.7925 50.3009 46.8748 50.0938 46.8748H7.90625C7.69905 46.8748 7.50034 46.7925 7.35382 46.646C7.20731 46.4995 7.125 46.3008 7.125 46.0936V45.3123H50.875V46.0936Z" fill="white"/>
<path d="M13.375 42.9688H44.625V41.4062H41.5V23.4375C41.5 23.2303 41.4177 23.0316 41.2712 22.8851C41.1247 22.7386 40.926 22.6562 40.7188 22.6562H36.0312C35.824 22.6562 35.6253 22.7386 35.4788 22.8851C35.3323 23.0316 35.25 23.2303 35.25 23.4375V41.4062H32.125V29.6875C32.125 29.4803 32.0427 29.2816 31.8962 29.1351C31.7497 28.9886 31.551 28.9062 31.3438 28.9062H26.6562C26.449 28.9062 26.2503 28.9886 26.1038 29.1351C25.9573 29.2816 25.875 29.4803 25.875 29.6875V41.4062H22.75V33.5938C22.75 33.3865 22.6677 33.1878 22.5212 33.0413C22.3747 32.8948 22.176 32.8125 21.9688 32.8125H17.2812C17.074 32.8125 16.8753 32.8948 16.7288 33.0413C16.5823 33.1878 16.5 33.3865 16.5 33.5938V41.4062H13.375V42.9688ZM36.8125 24.2188H39.9375V41.4062H36.8125V24.2188ZM27.4375 30.4688H30.5625V41.4062H27.4375V30.4688ZM18.0625 34.375H21.1875V41.4062H18.0625V34.375Z" fill="white"/>
<path d="M25.0938 1.5625H26.6562V3.125H25.0938V1.5625Z" fill="white"/>
<path d="M26.6562 3.125H28.2188V4.6875H26.6562V3.125Z" fill="white"/>
<path d="M25.0938 4.6875H26.6562V6.25H25.0938V4.6875Z" fill="white"/>
<path d="M23.5312 3.125H25.0938V4.6875H23.5312V3.125Z" fill="white"/>
<path d="M21.9688 7.8125H23.5312V9.375H21.9688V7.8125Z" fill="white"/>
<path d="M50.875 9.375H52.4375V10.9375H50.875V9.375Z" fill="white"/>
<path d="M49.3125 10.9375H50.875V12.5H49.3125V10.9375Z" fill="white"/>
<path d="M47.75 9.375H49.3125V10.9375H47.75V9.375Z" fill="white"/>
<path d="M49.3125 7.8125H50.875V9.375H49.3125V7.8125Z" fill="white"/>
<path d="M46.1875 4.6875H47.75V6.25H46.1875V4.6875Z" fill="white"/>
<path d="M18.0625 25.0001H16.5V27.3438C16.5 27.551 16.5823 27.7498 16.7288 27.8963C16.8753 28.0428 17.074 28.1251 17.2812 28.1251C19.951 28.0088 22.5357 27.1518 24.7461 25.6501L23.8789 24.3501C22.138 25.5218 20.1452 26.2664 18.0625 26.5235V25.0001Z" fill="white"/>
<path d="M16.5 21.875H18.0625V23.4375H16.5V21.875Z" fill="white"/>
</g>
<defs>
<filter id="filter0_d_11_1417" x="0" y="0" width="58" height="58" filterUnits="userSpaceOnUse" color-interpolation-filters="sRGB">
<feFlood flood-opacity="0" result="BackgroundImageFix"/>
<feColorMatrix in="SourceAlpha" type="matrix" values="0 0 0 0 0 0 0 0 0 0 0 0 0 0 0 0 0 0 127 0" result="hardAlpha"/>
<feOffset dy="4"/>
<feGaussianBlur stdDeviation="2"/>
<feComposite in2="hardAlpha" operator="out"/>
<feColorMatrix type="matrix" values="0 0 0 0 0 0 0 0 0 0 0 0 0 0 0 0 0 0 0.25 0"/>
<feBlend mode="normal" in2="BackgroundImageFix" result="effect1_dropShadow_11_1417"/>
<feBlend mode="normal" in="SourceGraphic" in2="effect1_dropShadow_11_1417" result="shape"/>
</filter>
</defs>
</svg>
