<svg width="80" height="80" viewBox="0 0 80 80" fill="none" xmlns="http://www.w3.org/2000/svg">
<path d="M46.7962 78.4375H32.7336V65H46.7962V78.4375ZM37.4211 75.3125H42.1087V69.6875H37.4211V75.3125Z" fill="#8B8992"/>
<path d="M39.9993 69.6875H42.1086V75.3125H39.9993V78.4375H46.7962V65H39.9993V69.6875Z" fill="#57555C"/>
<path d="M75.0774 58.75H4.92114V21.25H75.0774V58.75Z" fill="#9BC9FF"/>
<path d="M75.0764 21.25H39.9983V58.75H75.0764V21.25Z" fill="#009AE5"/>
<path d="M51.4827 75.3125H28.0452V80H51.4827V75.3125Z" fill="#005ECE"/>
<path d="M37.4211 58.75H23.3586V26.7188H37.4211V58.75Z" fill="#B87FD9"/>
<path d="M37.4211 58.75H30.3899V26.7188H37.4211V58.75Z" fill="#8034AD"/>
<path d="M45.263 20.4688H15.3591L9.2793 0H18.2235C21.4171 0 25.1341 1.14281 28.0454 3.20344V0H51.3427L45.263 20.4688Z" fill="#8B8992"/>
<path d="M51.3435 0H30.3118V20.4688H45.2638L51.3435 0Z" fill="#57555C"/>
<path d="M38.8274 31.4062H21.9524C18.0754 31.4062 14.9211 28.252 14.9211 24.375V15.7812H45.8587V24.375C45.8587 28.252 42.7044 31.4062 38.8274 31.4062Z" fill="#E3CEF0"/>
<path d="M30.3899 15.7812V31.4062H38.8274C42.7044 31.4062 45.8587 28.252 45.8587 24.375V15.7812H30.3899Z" fill="#D5B4E8"/>
<path d="M66.829 18.4915C65.4022 18.4915 63.9944 18.1175 62.7257 17.385C60.8212 16.2853 59.4587 14.5098 58.8896 12.3854C58.3204 10.2612 58.6124 8.04246 59.7121 6.13793C60.8118 4.2334 62.5872 2.87105 64.7116 2.30184L72.6644 0.170898L74.7952 8.12371C75.3644 10.2479 75.0724 12.4667 73.9727 14.3712C72.873 16.2757 71.0977 17.6382 68.9733 18.2073C68.2641 18.3975 67.544 18.4915 66.829 18.4915Z" fill="#E0E0E2"/>
<path d="M74.7952 8.12371L72.6644 0.170898H72.6643L62.7258 17.3848C63.9946 18.1173 65.4024 18.4915 66.8291 18.4914C67.5443 18.4914 68.2643 18.3973 68.9735 18.2073C71.0977 17.6381 72.8732 16.2757 73.9729 14.3712C75.0724 12.4667 75.3644 10.2479 74.7952 8.12371Z" fill="#ACABB1"/>
<path d="M43.8933 64.0664L31.7148 57.0351L51.2461 23.2061L63.4245 30.2373L43.8933 64.0664Z" fill="#FFE477"/>
<path d="M37.8032 60.5504L43.8921 64.0659L63.4229 30.2385L57.334 26.7229L37.8032 60.5504Z" fill="#FFA733"/>
<path d="M62.8848 35.3386L47.0979 26.2241L60.7024 10.8041L69.4365 15.8467L62.8848 35.3386Z" fill="#FF9A00"/>
<path d="M69.4366 15.8467L65.0696 13.3254L54.9915 30.7812L62.8849 35.3386L69.4366 15.8467Z" fill="#E67500"/>
<path d="M75.0774 69.6875H4.92114V54.0625H75.0774V69.6875Z" fill="#005ECE"/>
<path d="M75.0764 54.0625H39.9983V69.6875H75.0764V54.0625Z" fill="#003F8A"/>
<path d="M51.4827 75.3125H39.7639V80H51.4827V75.3125Z" fill="#003F8A"/>
</svg>
