<svg width="186" height="50" viewBox="0 0 186 50" fill="none" xmlns="http://www.w3.org/2000/svg">
<g clip-path="url(#clip0_11_1709)">
<path d="M19.8077 7.09784C23.8439 7.09784 26.9687 8.21756 29.1821 10.457C31.3955 12.6704 32.5022 15.8473 32.5022 19.9876C32.5022 24.102 31.3955 27.2788 29.1821 29.5183C26.9687 31.7577 23.8439 32.8774 19.8077 32.8774H9.84744V7.09784H19.8077ZM19.5343 28.5808C21.9821 28.5808 23.8179 27.8517 25.0418 26.3935C26.2917 24.9092 26.9167 22.7739 26.9167 19.9876C26.9167 17.2014 26.2917 15.0791 25.0418 13.6209C23.8179 12.1366 21.9821 11.3944 19.5343 11.3944H15.2377V28.5808H19.5343ZM39.9557 10.5351C38.836 10.5351 38.0027 10.3008 37.4558 9.83204C36.909 9.33728 36.6356 8.62118 36.6356 7.68374C36.6356 6.72026 36.909 6.00416 37.4558 5.53544C38.0027 5.04068 38.836 4.7933 39.9557 4.7933C41.0754 4.7933 41.9087 5.04068 42.4555 5.53544C43.0024 6.00416 43.2758 6.72026 43.2758 7.68374C43.2758 8.62118 43.0024 9.33728 42.4555 9.83204C41.9087 10.3008 41.0754 10.5351 39.9557 10.5351ZM42.6118 13.3474V32.8774H37.2605V13.3474H42.6118ZM66.291 8.6993L66.9159 12.5272C66.8118 12.5272 66.6946 12.5272 66.5644 12.5272C66.4602 12.5011 66.3431 12.4881 66.2129 12.4881C65.0411 12.4881 64.1427 12.7615 63.5177 13.3084C62.9188 13.8292 62.6193 14.5583 62.6193 15.4957L60.432 14.5974C60.432 13.5558 60.6403 12.5923 61.0569 11.7069C61.4736 10.7955 62.0855 10.0664 62.8928 9.51956C63.726 8.97272 64.7156 8.6993 65.8613 8.6993C65.9134 8.6993 65.9785 8.6993 66.0566 8.6993C66.1347 8.6993 66.2129 8.6993 66.291 8.6993ZM59.8851 29.2058C61.9944 29.2058 63.6219 29.6615 64.7676 30.5729C65.9134 31.4843 66.4863 32.7603 66.4863 34.4008C66.4863 35.8851 66.0566 37.135 65.1973 38.1505C64.338 39.1921 63.1271 39.9733 61.5647 40.4941C60.0284 41.0149 58.2446 41.2753 56.2135 41.2753C52.8543 41.2753 50.3936 40.8066 48.8312 39.8692C47.2948 38.9317 46.5266 37.7079 46.5266 36.1975C46.5266 35.1299 46.9302 34.2315 47.7375 33.5024C48.5708 32.7733 49.9379 32.3697 51.8388 32.2915L51.6435 32.9165C50.2894 32.6821 49.2478 32.2395 48.5187 31.5885C47.8156 30.9114 47.4641 29.987 47.4641 28.8152C47.4641 27.6174 47.9198 26.6409 48.8312 25.8857C49.7686 25.1045 51.0315 24.6488 52.62 24.5186L54.9636 25.6123H54.4167C53.297 25.6904 52.5028 25.9248 52.0341 26.3154C51.5914 26.6799 51.3701 27.0966 51.3701 27.5653C51.3701 28.1121 51.5784 28.5288 51.995 28.8152C52.4377 29.0756 53.0627 29.2058 53.8699 29.2058H59.8851ZM56.2526 37.6037C57.6066 37.6037 58.7133 37.4865 59.5727 37.2522C60.458 37.0178 61.109 36.7183 61.5257 36.3538C61.9683 35.9892 62.1897 35.5856 62.1897 35.1429C62.1897 34.6482 61.9944 34.2445 61.6038 33.9321C61.2132 33.6456 60.5101 33.5024 59.4945 33.5024H52.8934C52.2684 33.5024 51.7476 33.6586 51.331 33.9711C50.9404 34.2836 50.7451 34.7133 50.7451 35.2601C50.7451 35.9892 51.2268 36.5621 52.1903 36.9787C53.1798 37.3954 54.5339 37.6037 56.2526 37.6037ZM56.2916 12.9568C58.1144 12.9568 59.6898 13.2303 61.0179 13.7771C62.372 14.2979 63.4005 15.0531 64.1036 16.0426C64.8327 17.0321 65.1973 18.2169 65.1973 19.597C65.1973 20.9511 64.8327 22.1229 64.1036 23.1124C63.4005 24.102 62.372 24.8701 61.0179 25.417C59.6898 25.9378 58.1144 26.1982 56.2916 26.1982C53.4012 26.1982 51.1878 25.6123 49.6514 24.4405C48.1151 23.2426 47.3469 21.6282 47.3469 19.597C47.3469 18.2169 47.7114 17.0321 48.4406 16.0426C49.1697 15.0531 50.1983 14.2979 51.5263 13.7771C52.8543 13.2303 54.4428 12.9568 56.2916 12.9568ZM56.2916 16.316C55.25 16.316 54.3907 16.6024 53.7137 17.1753C53.0366 17.7482 52.6981 18.5424 52.6981 19.558C52.6981 20.5735 53.0366 21.3808 53.7137 21.9797C54.3907 22.5526 55.25 22.839 56.2916 22.839C57.3332 22.839 58.1795 22.5526 58.8305 21.9797C59.5076 21.3808 59.8461 20.5735 59.8461 19.558C59.8461 18.5424 59.5076 17.7482 58.8305 17.1753C58.1795 16.6024 57.3332 16.316 56.2916 16.316ZM72.4167 10.5351C71.297 10.5351 70.4637 10.3008 69.9168 9.83204C69.37 9.33728 69.0966 8.62118 69.0966 7.68374C69.0966 6.72026 69.37 6.00416 69.9168 5.53544C70.4637 5.04068 71.297 4.7933 72.4167 4.7933C73.5364 4.7933 74.3697 5.04068 74.9165 5.53544C75.4634 6.00416 75.7368 6.72026 75.7368 7.68374C75.7368 8.62118 75.4634 9.33728 74.9165 9.83204C74.3697 10.3008 73.5364 10.5351 72.4167 10.5351ZM75.0728 13.3474V32.8774H69.7215V13.3474H75.0728Z" fill="#FF5300"/>
<path d="M89.8072 33.268C87.7501 33.268 85.9533 32.8644 84.417 32.0572C82.9066 31.2499 81.7348 30.0912 80.9016 28.5808C80.0683 27.0705 79.6516 25.2477 79.6516 23.1124C79.6516 20.9772 80.0683 19.1544 80.9016 17.644C81.7348 16.1337 82.8936 14.9749 84.3779 14.1677C85.8882 13.3605 87.6069 12.9568 89.5338 12.9568C91.5129 12.9568 93.1924 13.3605 94.5726 14.1677C95.9527 14.9489 97.0073 16.0296 97.7364 17.4097C98.4655 18.7638 98.8301 20.3131 98.8301 22.0578C98.8301 22.5786 98.8171 23.0734 98.791 23.5421C98.765 24.0108 98.7259 24.4275 98.6739 24.792H83.0889V21.0813H96.3303L93.7523 22.0188C93.7523 20.3782 93.3747 19.1153 92.6196 18.2299C91.8904 17.3446 90.8488 16.9019 89.4948 16.9019C88.5052 16.9019 87.6459 17.1363 86.9168 17.605C86.2137 18.0737 85.6799 18.7768 85.3153 19.7142C84.9508 20.6256 84.7685 21.7844 84.7685 23.1906C84.7685 24.5707 84.9638 25.7164 85.3544 26.6278C85.771 27.5132 86.3439 28.1772 87.073 28.6199C87.8282 29.0626 88.7266 29.2839 89.7682 29.2839C90.9139 29.2839 91.8384 29.0626 92.5414 28.6199C93.2445 28.1772 93.7914 27.5653 94.182 26.7841L98.4395 28.4246C98.0229 29.4402 97.3849 30.3125 96.5256 31.0416C95.6923 31.7707 94.6897 32.3306 93.5179 32.7212C92.3722 33.0858 91.1353 33.268 89.8072 33.268ZM103.365 32.8774V13.3474H108.169L108.482 19.2064L107.818 18.5815C108.13 17.3055 108.625 16.2639 109.302 15.4567C109.979 14.6234 110.799 13.9984 111.763 13.5818C112.752 13.1652 113.833 12.9568 115.005 12.9568C116.359 12.9568 117.557 13.2172 118.598 13.738C119.666 14.2588 120.499 15.0531 121.098 16.1207C121.723 17.1623 122.036 18.4773 122.036 20.0658V32.8774H116.684V21.5891C116.684 19.9225 116.359 18.7768 115.708 18.1518C115.057 17.5008 114.211 17.1753 113.169 17.1753C112.44 17.1753 111.724 17.3576 111.021 17.7222C110.344 18.0607 109.784 18.6205 109.341 19.4017C108.925 20.1829 108.716 21.2245 108.716 22.5265V32.8774H103.365ZM136.415 12.9568C138.16 12.9568 139.631 13.2172 140.829 13.738C142.053 14.2328 143.029 14.9229 143.759 15.8082C144.514 16.6675 145.048 17.631 145.36 18.6987L140.36 20.4954C140.1 19.3236 139.657 18.4383 139.032 17.8393C138.407 17.2404 137.561 16.941 136.493 16.941C135.504 16.941 134.658 17.1753 133.954 17.644C133.251 18.0867 132.718 18.7768 132.353 19.7142C131.988 20.6256 131.806 21.7714 131.806 23.1515C131.806 24.5316 131.988 25.6774 132.353 26.5888C132.744 27.5002 133.29 28.1772 133.994 28.6199C134.723 29.0626 135.569 29.2839 136.532 29.2839C137.314 29.2839 137.978 29.1537 138.525 28.8933C139.071 28.6069 139.514 28.2033 139.853 27.6825C140.217 27.1617 140.464 26.5367 140.595 25.8076L145.438 27.37C145.152 28.5418 144.618 29.5704 143.837 30.4557C143.055 31.3411 142.053 32.0311 140.829 32.5259C139.605 33.0207 138.186 33.268 136.572 33.268C134.566 33.268 132.796 32.8644 131.259 32.0572C129.723 31.2499 128.538 30.0912 127.705 28.5808C126.872 27.0705 126.455 25.2477 126.455 23.1124C126.455 20.9772 126.872 19.1544 127.705 17.644C128.538 16.1337 129.71 14.9749 131.22 14.1677C132.731 13.3605 134.462 12.9568 136.415 12.9568ZM167.459 13.3474L159.568 34.0883C158.943 35.859 158.24 37.2652 157.459 38.3068C156.704 39.3484 155.819 40.1035 154.803 40.5723C153.814 41.041 152.629 41.2753 151.249 41.2753C150.233 41.2753 149.296 41.1451 148.436 40.8847C147.603 40.6504 146.874 40.3379 146.249 39.9473L147.382 36.0804C147.876 36.471 148.397 36.7444 148.944 36.9006C149.491 37.0829 150.116 37.174 150.819 37.174C151.548 37.174 152.173 37.0178 152.694 36.7053C153.241 36.3928 153.696 35.7679 154.061 34.8304L154.725 33.1509L152.577 28.0731L146.6 13.3474H152.538L156.248 25.0654L157.264 28.9714L158.475 24.8311L162.029 13.3474H167.459Z" fill="white"/>
</g>
<defs>
<clipPath id="clip0_11_1709">
<rect width="186" height="50" fill="white"/>
</clipPath>
</defs>
</svg>
