<svg width="50" height="50" viewBox="0 0 50 50" fill="none" xmlns="http://www.w3.org/2000/svg">
<circle cx="25" cy="25" r="25" fill="white"/>
<path d="M26.3099 33.4002C24.9876 33.6067 23.6352 33.4981 22.3628 33.0832C21.0904 32.6683 19.934 31.9588 18.9877 31.0124C18.0413 30.0661 17.3318 28.9096 16.9169 27.6372C16.502 26.3648 16.3934 25.0125 16.5999 23.6902C16.0786 22.6987 15.8882 21.5664 16.0563 20.459C16.2245 19.3515 16.7424 18.3268 17.5345 17.5348C18.3266 16.7427 19.3513 16.2247 20.4587 16.0566C21.5662 15.8884 22.6984 16.0789 23.6899 16.6002C25.0122 16.3936 26.3646 16.5022 27.637 16.9171C28.9094 17.3321 30.0658 18.0416 31.0122 18.9879C31.9585 19.9343 32.668 21.0907 33.0829 22.3631C33.4979 23.6355 33.6065 24.9879 33.3999 26.3102C33.9212 27.3016 34.1117 28.4339 33.9435 29.5413C33.7754 30.6488 33.2574 31.6735 32.4653 32.4655C31.6732 33.2576 30.6486 33.7756 29.5411 33.9437C28.4336 34.1119 27.3014 33.9214 26.3099 33.4002ZM25.0519 30.1562H25.0119C27.8839 30.1562 29.3149 28.7702 29.3149 26.9132C29.3149 25.7152 28.7639 24.4422 26.5889 23.9552L24.6059 23.5152C23.8509 23.3432 22.9839 23.1152 22.9839 22.4002C22.9839 21.6852 23.6039 21.1872 24.7079 21.1872C26.9379 21.1872 26.7349 22.7152 27.8389 22.7152C28.4149 22.7152 28.9319 22.3732 28.9319 21.7852C28.9319 20.4152 26.7349 19.3852 24.8759 19.3852C22.8549 19.3852 20.7029 20.2442 20.7029 22.5292C20.7029 23.6272 21.0969 24.7992 23.2629 25.3422L25.9519 26.0132C26.7679 26.2152 26.9699 26.6722 26.9699 27.0852C26.9699 27.7722 26.2859 28.4432 25.0519 28.4432C22.6349 28.4432 22.9739 26.5862 21.6779 26.5862C21.0979 26.5862 20.6749 26.9842 20.6749 27.5572C20.6749 28.6712 22.0269 30.1552 25.0519 30.1552V30.1562Z" fill="#373737"/>
</svg>
