<svg width="50" height="50" viewBox="0 0 50 50" fill="none" xmlns="http://www.w3.org/2000/svg">
<circle cx="25" cy="25" r="25" fill="white"/>
<g clip-path="url(#clip0_11_1746)">
<path d="M35.1621 18.6559C34.3986 18.9936 33.589 19.2154 32.7601 19.3139C33.6338 18.7914 34.2878 17.9689 34.6001 16.9999C33.7801 17.4879 32.8811 17.8299 31.9441 18.0149C31.3147 17.3415 30.4804 16.8949 29.571 16.7445C28.6616 16.5941 27.728 16.7484 26.9153 17.1834C26.1026 17.6183 25.4564 18.3096 25.0772 19.1497C24.6979 19.9898 24.6068 20.9317 24.8181 21.8289C23.1552 21.7456 21.5284 21.3134 20.0433 20.5606C18.5583 19.8077 17.2482 18.751 16.1981 17.4589C15.8263 18.0974 15.631 18.8232 15.6321 19.5619C15.6321 21.0119 16.3701 22.2929 17.4921 23.0429C16.8281 23.022 16.1787 22.8427 15.5981 22.5199V22.5719C15.5983 23.5376 15.9324 24.4735 16.5439 25.221C17.1554 25.9684 18.0065 26.4814 18.9531 26.6729C18.3367 26.84 17.6904 26.8646 17.0631 26.7449C17.3299 27.5762 17.8501 28.3031 18.5506 28.824C19.2512 29.3449 20.0972 29.6337 20.9701 29.6499C20.1025 30.3313 19.1092 30.8349 18.0469 31.1321C16.9846 31.4293 15.8742 31.5142 14.7791 31.3819C16.6908 32.6114 18.9161 33.264 21.1891 33.2619C28.8821 33.2619 33.0891 26.8889 33.0891 21.3619C33.0891 21.1819 33.0841 20.9999 33.0761 20.8219C33.8949 20.2301 34.6017 19.4969 35.1631 18.6569L35.1621 18.6559Z" fill="#373737"/>
</g>
<defs>
<clipPath id="clip0_11_1746">
<rect width="24" height="24" fill="white" transform="translate(13 13)"/>
</clipPath>
</defs>
</svg>
